<mxfile host="app.diagrams.net" modified="2023-12-05T01:20:44.529Z" agent="Mozilla/5.0 (Windows NT 10.0; Win64; x64) AppleWebKit/537.36 (KHTML, like Gecko) Chrome/119.0.0.0 Safari/537.36" etag="WySMfTggOjY_9U3uRncD" version="22.1.5" type="device">
  <diagram id="C5RBs43oDa-KdzZeNtuy" name="Page-1">
    <mxGraphModel dx="1600" dy="683" grid="1" gridSize="10" guides="1" tooltips="1" connect="1" arrows="1" fold="1" page="1" pageScale="1" pageWidth="827" pageHeight="1169" math="0" shadow="0">
      <root>
        <mxCell id="WIyWlLk6GJQsqaUBKTNV-0" />
        <mxCell id="WIyWlLk6GJQsqaUBKTNV-1" parent="WIyWlLk6GJQsqaUBKTNV-0" />
        <mxCell id="3EijbXTQ5kL77mUoH7r4-2" value="" style="edgeStyle=orthogonalEdgeStyle;rounded=0;orthogonalLoop=1;jettySize=auto;html=1;" edge="1" parent="WIyWlLk6GJQsqaUBKTNV-1" source="3EijbXTQ5kL77mUoH7r4-0" target="3EijbXTQ5kL77mUoH7r4-1">
          <mxGeometry relative="1" as="geometry" />
        </mxCell>
        <mxCell id="3EijbXTQ5kL77mUoH7r4-0" value="start" style="ellipse;whiteSpace=wrap;html=1;" vertex="1" parent="WIyWlLk6GJQsqaUBKTNV-1">
          <mxGeometry x="160" y="80" width="120" height="80" as="geometry" />
        </mxCell>
        <mxCell id="3EijbXTQ5kL77mUoH7r4-4" value="" style="edgeStyle=orthogonalEdgeStyle;rounded=0;orthogonalLoop=1;jettySize=auto;html=1;entryX=0.5;entryY=0;entryDx=0;entryDy=0;" edge="1" parent="WIyWlLk6GJQsqaUBKTNV-1" source="3EijbXTQ5kL77mUoH7r4-1" target="3EijbXTQ5kL77mUoH7r4-5">
          <mxGeometry relative="1" as="geometry">
            <mxPoint x="220" y="320" as="targetPoint" />
          </mxGeometry>
        </mxCell>
        <mxCell id="3EijbXTQ5kL77mUoH7r4-1" value="&lt;div&gt;struct student{&lt;/div&gt;&lt;div&gt;char hvt[50];&lt;span style=&quot;&quot;&gt;&lt;/span&gt;&lt;/div&gt;&lt;div&gt;&lt;span style=&quot;&quot;&gt;&lt;span style=&quot;&quot;&gt;&lt;span style=&quot;white-space: pre;&quot;&gt;&amp;nbsp;&amp;nbsp;&amp;nbsp;&amp;nbsp;&lt;/span&gt;&lt;/span&gt;int age;&lt;/span&gt;&lt;/div&gt;&lt;div&gt;&lt;span style=&quot;&quot;&gt;&lt;span style=&quot;&quot;&gt;&lt;span style=&quot;white-space: pre;&quot;&gt;&amp;nbsp;&amp;nbsp;&amp;nbsp;&amp;nbsp;&lt;/span&gt;&lt;/span&gt;char sdt[20];&lt;/span&gt;&lt;/div&gt;&lt;div&gt;&lt;span style=&quot;&quot;&gt;&lt;span style=&quot;&quot;&gt;&lt;span style=&quot;white-space: pre;&quot;&gt;&amp;nbsp;&amp;nbsp;&amp;nbsp;&amp;nbsp;&lt;/span&gt;&lt;/span&gt;char email[30];&lt;/span&gt;&lt;/div&gt;" style="shape=parallelogram;perimeter=parallelogramPerimeter;whiteSpace=wrap;html=1;fixedSize=1;" vertex="1" parent="WIyWlLk6GJQsqaUBKTNV-1">
          <mxGeometry x="145" y="200" width="150" height="80" as="geometry" />
        </mxCell>
        <mxCell id="3EijbXTQ5kL77mUoH7r4-8" value="" style="edgeStyle=orthogonalEdgeStyle;rounded=0;orthogonalLoop=1;jettySize=auto;html=1;entryX=0.5;entryY=0;entryDx=0;entryDy=0;" edge="1" parent="WIyWlLk6GJQsqaUBKTNV-1" source="3EijbXTQ5kL77mUoH7r4-5" target="3EijbXTQ5kL77mUoH7r4-9">
          <mxGeometry relative="1" as="geometry">
            <mxPoint x="220" y="420" as="targetPoint" />
          </mxGeometry>
        </mxCell>
        <mxCell id="3EijbXTQ5kL77mUoH7r4-5" value="count,index,student,choice" style="rounded=0;whiteSpace=wrap;html=1;" vertex="1" parent="WIyWlLk6GJQsqaUBKTNV-1">
          <mxGeometry x="140" y="320" width="160" height="60" as="geometry" />
        </mxCell>
        <mxCell id="3EijbXTQ5kL77mUoH7r4-13" value="" style="edgeStyle=orthogonalEdgeStyle;rounded=0;orthogonalLoop=1;jettySize=auto;html=1;" edge="1" parent="WIyWlLk6GJQsqaUBKTNV-1" source="3EijbXTQ5kL77mUoH7r4-6" target="3EijbXTQ5kL77mUoH7r4-12">
          <mxGeometry relative="1" as="geometry" />
        </mxCell>
        <mxCell id="3EijbXTQ5kL77mUoH7r4-15" value="" style="edgeStyle=orthogonalEdgeStyle;rounded=0;orthogonalLoop=1;jettySize=auto;html=1;" edge="1" parent="WIyWlLk6GJQsqaUBKTNV-1" source="3EijbXTQ5kL77mUoH7r4-6" target="3EijbXTQ5kL77mUoH7r4-14">
          <mxGeometry relative="1" as="geometry" />
        </mxCell>
        <mxCell id="3EijbXTQ5kL77mUoH7r4-6" value="choice==1" style="rhombus;whiteSpace=wrap;html=1;" vertex="1" parent="WIyWlLk6GJQsqaUBKTNV-1">
          <mxGeometry x="180" y="530" width="80" height="80" as="geometry" />
        </mxCell>
        <mxCell id="3EijbXTQ5kL77mUoH7r4-11" value="" style="edgeStyle=orthogonalEdgeStyle;rounded=0;orthogonalLoop=1;jettySize=auto;html=1;" edge="1" parent="WIyWlLk6GJQsqaUBKTNV-1" source="3EijbXTQ5kL77mUoH7r4-9" target="3EijbXTQ5kL77mUoH7r4-6">
          <mxGeometry relative="1" as="geometry" />
        </mxCell>
        <mxCell id="3EijbXTQ5kL77mUoH7r4-9" value="MENU" style="shape=parallelogram;perimeter=parallelogramPerimeter;whiteSpace=wrap;html=1;fixedSize=1;" vertex="1" parent="WIyWlLk6GJQsqaUBKTNV-1">
          <mxGeometry x="160" y="430" width="120" height="60" as="geometry" />
        </mxCell>
        <mxCell id="3EijbXTQ5kL77mUoH7r4-27" style="edgeStyle=orthogonalEdgeStyle;rounded=0;orthogonalLoop=1;jettySize=auto;html=1;" edge="1" parent="WIyWlLk6GJQsqaUBKTNV-1" source="3EijbXTQ5kL77mUoH7r4-12">
          <mxGeometry relative="1" as="geometry">
            <mxPoint x="640" y="570" as="targetPoint" />
          </mxGeometry>
        </mxCell>
        <mxCell id="3EijbXTQ5kL77mUoH7r4-12" value="inputStudent(students)" style="shape=process;whiteSpace=wrap;html=1;backgroundOutline=1;" vertex="1" parent="WIyWlLk6GJQsqaUBKTNV-1">
          <mxGeometry x="320" y="540" width="166" height="60" as="geometry" />
        </mxCell>
        <mxCell id="3EijbXTQ5kL77mUoH7r4-17" value="" style="edgeStyle=orthogonalEdgeStyle;rounded=0;orthogonalLoop=1;jettySize=auto;html=1;" edge="1" parent="WIyWlLk6GJQsqaUBKTNV-1" source="3EijbXTQ5kL77mUoH7r4-14" target="3EijbXTQ5kL77mUoH7r4-16">
          <mxGeometry relative="1" as="geometry" />
        </mxCell>
        <mxCell id="3EijbXTQ5kL77mUoH7r4-19" value="" style="edgeStyle=orthogonalEdgeStyle;rounded=0;orthogonalLoop=1;jettySize=auto;html=1;" edge="1" parent="WIyWlLk6GJQsqaUBKTNV-1" source="3EijbXTQ5kL77mUoH7r4-14" target="3EijbXTQ5kL77mUoH7r4-18">
          <mxGeometry relative="1" as="geometry" />
        </mxCell>
        <mxCell id="3EijbXTQ5kL77mUoH7r4-14" value="choice==2" style="rhombus;whiteSpace=wrap;html=1;" vertex="1" parent="WIyWlLk6GJQsqaUBKTNV-1">
          <mxGeometry x="180" y="650" width="80" height="80" as="geometry" />
        </mxCell>
        <mxCell id="3EijbXTQ5kL77mUoH7r4-28" style="edgeStyle=orthogonalEdgeStyle;rounded=0;orthogonalLoop=1;jettySize=auto;html=1;" edge="1" parent="WIyWlLk6GJQsqaUBKTNV-1" source="3EijbXTQ5kL77mUoH7r4-16">
          <mxGeometry relative="1" as="geometry">
            <mxPoint x="640" y="690" as="targetPoint" />
          </mxGeometry>
        </mxCell>
        <mxCell id="3EijbXTQ5kL77mUoH7r4-16" value="addStudent(students, count);&lt;br&gt;&amp;nbsp; &amp;nbsp;printStudents(students, count);" style="shape=process;whiteSpace=wrap;html=1;backgroundOutline=1;" vertex="1" parent="WIyWlLk6GJQsqaUBKTNV-1">
          <mxGeometry x="320" y="660" width="240" height="60" as="geometry" />
        </mxCell>
        <mxCell id="3EijbXTQ5kL77mUoH7r4-21" value="" style="edgeStyle=orthogonalEdgeStyle;rounded=0;orthogonalLoop=1;jettySize=auto;html=1;" edge="1" parent="WIyWlLk6GJQsqaUBKTNV-1" source="3EijbXTQ5kL77mUoH7r4-18" target="3EijbXTQ5kL77mUoH7r4-20">
          <mxGeometry relative="1" as="geometry" />
        </mxCell>
        <mxCell id="3EijbXTQ5kL77mUoH7r4-23" value="" style="edgeStyle=orthogonalEdgeStyle;rounded=0;orthogonalLoop=1;jettySize=auto;html=1;" edge="1" parent="WIyWlLk6GJQsqaUBKTNV-1" source="3EijbXTQ5kL77mUoH7r4-18" target="3EijbXTQ5kL77mUoH7r4-22">
          <mxGeometry relative="1" as="geometry" />
        </mxCell>
        <mxCell id="3EijbXTQ5kL77mUoH7r4-18" value="choice==3" style="rhombus;whiteSpace=wrap;html=1;" vertex="1" parent="WIyWlLk6GJQsqaUBKTNV-1">
          <mxGeometry x="180" y="770" width="80" height="80" as="geometry" />
        </mxCell>
        <mxCell id="3EijbXTQ5kL77mUoH7r4-29" style="edgeStyle=orthogonalEdgeStyle;rounded=0;orthogonalLoop=1;jettySize=auto;html=1;" edge="1" parent="WIyWlLk6GJQsqaUBKTNV-1" source="3EijbXTQ5kL77mUoH7r4-20">
          <mxGeometry relative="1" as="geometry">
            <mxPoint x="640" y="810" as="targetPoint" />
          </mxGeometry>
        </mxCell>
        <mxCell id="3EijbXTQ5kL77mUoH7r4-20" value="&lt;div&gt;editStudent(students, count, index);&lt;/div&gt;&lt;div&gt;&lt;span style=&quot;background-color: initial;&quot;&gt;printStudents(students, count);&lt;/span&gt;&lt;/div&gt;&lt;div&gt;&lt;span style=&quot;&quot;&gt;&lt;/span&gt;&lt;/div&gt;" style="shape=process;whiteSpace=wrap;html=1;backgroundOutline=1;" vertex="1" parent="WIyWlLk6GJQsqaUBKTNV-1">
          <mxGeometry x="320" y="780" width="240" height="60" as="geometry" />
        </mxCell>
        <mxCell id="3EijbXTQ5kL77mUoH7r4-25" value="" style="edgeStyle=orthogonalEdgeStyle;rounded=0;orthogonalLoop=1;jettySize=auto;html=1;" edge="1" parent="WIyWlLk6GJQsqaUBKTNV-1" source="3EijbXTQ5kL77mUoH7r4-22" target="3EijbXTQ5kL77mUoH7r4-24">
          <mxGeometry relative="1" as="geometry" />
        </mxCell>
        <mxCell id="3EijbXTQ5kL77mUoH7r4-31" value="" style="edgeStyle=orthogonalEdgeStyle;rounded=0;orthogonalLoop=1;jettySize=auto;html=1;" edge="1" parent="WIyWlLk6GJQsqaUBKTNV-1" source="3EijbXTQ5kL77mUoH7r4-22" target="3EijbXTQ5kL77mUoH7r4-30">
          <mxGeometry relative="1" as="geometry" />
        </mxCell>
        <mxCell id="3EijbXTQ5kL77mUoH7r4-22" value="choice==4" style="rhombus;whiteSpace=wrap;html=1;" vertex="1" parent="WIyWlLk6GJQsqaUBKTNV-1">
          <mxGeometry x="180" y="900" width="80" height="80" as="geometry" />
        </mxCell>
        <mxCell id="3EijbXTQ5kL77mUoH7r4-26" style="edgeStyle=orthogonalEdgeStyle;rounded=0;orthogonalLoop=1;jettySize=auto;html=1;" edge="1" parent="WIyWlLk6GJQsqaUBKTNV-1" source="3EijbXTQ5kL77mUoH7r4-24">
          <mxGeometry relative="1" as="geometry">
            <mxPoint x="220" y="400" as="targetPoint" />
            <Array as="points">
              <mxPoint x="640" y="940" />
            </Array>
          </mxGeometry>
        </mxCell>
        <mxCell id="3EijbXTQ5kL77mUoH7r4-24" value="&lt;div&gt;deleteStudent(students, count, index);&lt;/div&gt;&lt;div&gt;printStudents(students, count);&lt;span style=&quot;&quot;&gt;&lt;/span&gt;&lt;/div&gt;" style="shape=process;whiteSpace=wrap;html=1;backgroundOutline=1;" vertex="1" parent="WIyWlLk6GJQsqaUBKTNV-1">
          <mxGeometry x="320" y="910" width="240" height="60" as="geometry" />
        </mxCell>
        <mxCell id="3EijbXTQ5kL77mUoH7r4-33" value="" style="edgeStyle=orthogonalEdgeStyle;rounded=0;orthogonalLoop=1;jettySize=auto;html=1;" edge="1" parent="WIyWlLk6GJQsqaUBKTNV-1" source="3EijbXTQ5kL77mUoH7r4-30" target="3EijbXTQ5kL77mUoH7r4-32">
          <mxGeometry relative="1" as="geometry" />
        </mxCell>
        <mxCell id="3EijbXTQ5kL77mUoH7r4-60" style="edgeStyle=orthogonalEdgeStyle;rounded=0;orthogonalLoop=1;jettySize=auto;html=1;" edge="1" parent="WIyWlLk6GJQsqaUBKTNV-1" source="3EijbXTQ5kL77mUoH7r4-30">
          <mxGeometry relative="1" as="geometry">
            <mxPoint x="220" y="400" as="targetPoint" />
            <Array as="points">
              <mxPoint x="120" y="1070" />
            </Array>
          </mxGeometry>
        </mxCell>
        <mxCell id="3EijbXTQ5kL77mUoH7r4-30" value="choice==5" style="rhombus;whiteSpace=wrap;html=1;" vertex="1" parent="WIyWlLk6GJQsqaUBKTNV-1">
          <mxGeometry x="180" y="1030" width="80" height="80" as="geometry" />
        </mxCell>
        <mxCell id="3EijbXTQ5kL77mUoH7r4-32" value="end" style="ellipse;whiteSpace=wrap;html=1;" vertex="1" parent="WIyWlLk6GJQsqaUBKTNV-1">
          <mxGeometry x="320" y="1030" width="120" height="80" as="geometry" />
        </mxCell>
        <mxCell id="3EijbXTQ5kL77mUoH7r4-34" value="true" style="text;html=1;align=center;verticalAlign=middle;resizable=0;points=[];autosize=1;strokeColor=none;fillColor=none;" vertex="1" parent="WIyWlLk6GJQsqaUBKTNV-1">
          <mxGeometry x="260" y="1038" width="40" height="30" as="geometry" />
        </mxCell>
        <mxCell id="3EijbXTQ5kL77mUoH7r4-35" value="true" style="text;html=1;align=center;verticalAlign=middle;resizable=0;points=[];autosize=1;strokeColor=none;fillColor=none;" vertex="1" parent="WIyWlLk6GJQsqaUBKTNV-1">
          <mxGeometry x="260" y="910" width="40" height="30" as="geometry" />
        </mxCell>
        <mxCell id="3EijbXTQ5kL77mUoH7r4-36" value="true" style="text;html=1;align=center;verticalAlign=middle;resizable=0;points=[];autosize=1;strokeColor=none;fillColor=none;" vertex="1" parent="WIyWlLk6GJQsqaUBKTNV-1">
          <mxGeometry x="260" y="768" width="40" height="30" as="geometry" />
        </mxCell>
        <mxCell id="3EijbXTQ5kL77mUoH7r4-37" value="true" style="text;html=1;align=center;verticalAlign=middle;resizable=0;points=[];autosize=1;strokeColor=none;fillColor=none;" vertex="1" parent="WIyWlLk6GJQsqaUBKTNV-1">
          <mxGeometry x="260" y="660" width="40" height="30" as="geometry" />
        </mxCell>
        <mxCell id="3EijbXTQ5kL77mUoH7r4-38" value="true" style="text;html=1;align=center;verticalAlign=middle;resizable=0;points=[];autosize=1;strokeColor=none;fillColor=none;" vertex="1" parent="WIyWlLk6GJQsqaUBKTNV-1">
          <mxGeometry x="260" y="540" width="40" height="30" as="geometry" />
        </mxCell>
        <mxCell id="3EijbXTQ5kL77mUoH7r4-39" value="false" style="text;html=1;align=center;verticalAlign=middle;resizable=0;points=[];autosize=1;strokeColor=none;fillColor=none;" vertex="1" parent="WIyWlLk6GJQsqaUBKTNV-1">
          <mxGeometry x="175" y="618" width="50" height="30" as="geometry" />
        </mxCell>
        <mxCell id="3EijbXTQ5kL77mUoH7r4-40" value="false" style="text;html=1;align=center;verticalAlign=middle;resizable=0;points=[];autosize=1;strokeColor=none;fillColor=none;" vertex="1" parent="WIyWlLk6GJQsqaUBKTNV-1">
          <mxGeometry x="175" y="738" width="50" height="30" as="geometry" />
        </mxCell>
        <mxCell id="3EijbXTQ5kL77mUoH7r4-41" value="false" style="text;html=1;align=center;verticalAlign=middle;resizable=0;points=[];autosize=1;strokeColor=none;fillColor=none;" vertex="1" parent="WIyWlLk6GJQsqaUBKTNV-1">
          <mxGeometry x="165" y="858" width="50" height="30" as="geometry" />
        </mxCell>
        <mxCell id="3EijbXTQ5kL77mUoH7r4-42" value="false" style="text;html=1;align=center;verticalAlign=middle;resizable=0;points=[];autosize=1;strokeColor=none;fillColor=none;" vertex="1" parent="WIyWlLk6GJQsqaUBKTNV-1">
          <mxGeometry x="165" y="988" width="50" height="30" as="geometry" />
        </mxCell>
        <mxCell id="3EijbXTQ5kL77mUoH7r4-45" value="" style="edgeStyle=orthogonalEdgeStyle;rounded=0;orthogonalLoop=1;jettySize=auto;html=1;" edge="1" parent="WIyWlLk6GJQsqaUBKTNV-1" source="3EijbXTQ5kL77mUoH7r4-43" target="3EijbXTQ5kL77mUoH7r4-44">
          <mxGeometry relative="1" as="geometry" />
        </mxCell>
        <mxCell id="3EijbXTQ5kL77mUoH7r4-43" value="void inputStudent(struct student *s)" style="rounded=0;whiteSpace=wrap;html=1;" vertex="1" parent="WIyWlLk6GJQsqaUBKTNV-1">
          <mxGeometry x="827" y="80" width="120" height="60" as="geometry" />
        </mxCell>
        <mxCell id="3EijbXTQ5kL77mUoH7r4-44" value="&amp;amp;s-&amp;gt;hvt&lt;br&gt;&amp;amp;s-&amp;gt;age&lt;br&gt;s-&amp;gt;sdt&lt;br&gt;s-&amp;gt;email" style="shape=parallelogram;perimeter=parallelogramPerimeter;whiteSpace=wrap;html=1;fixedSize=1;" vertex="1" parent="WIyWlLk6GJQsqaUBKTNV-1">
          <mxGeometry x="827" y="200" width="120" height="70" as="geometry" />
        </mxCell>
        <mxCell id="3EijbXTQ5kL77mUoH7r4-49" value="" style="edgeStyle=orthogonalEdgeStyle;rounded=0;orthogonalLoop=1;jettySize=auto;html=1;" edge="1" parent="WIyWlLk6GJQsqaUBKTNV-1" source="3EijbXTQ5kL77mUoH7r4-46" target="3EijbXTQ5kL77mUoH7r4-48">
          <mxGeometry relative="1" as="geometry" />
        </mxCell>
        <mxCell id="3EijbXTQ5kL77mUoH7r4-46" value="void addStudent(struct student students[], int count)" style="rounded=0;whiteSpace=wrap;html=1;" vertex="1" parent="WIyWlLk6GJQsqaUBKTNV-1">
          <mxGeometry x="858.5" y="340" width="120" height="60" as="geometry" />
        </mxCell>
        <mxCell id="3EijbXTQ5kL77mUoH7r4-51" value="" style="edgeStyle=orthogonalEdgeStyle;rounded=0;orthogonalLoop=1;jettySize=auto;html=1;" edge="1" parent="WIyWlLk6GJQsqaUBKTNV-1" source="3EijbXTQ5kL77mUoH7r4-48" target="3EijbXTQ5kL77mUoH7r4-50">
          <mxGeometry relative="1" as="geometry" />
        </mxCell>
        <mxCell id="3EijbXTQ5kL77mUoH7r4-48" value="&lt;div&gt;inputStudent(&amp;amp;students[count]);&lt;/div&gt;&lt;div&gt;&amp;nbsp; (count)++&lt;/div&gt;" style="rounded=0;whiteSpace=wrap;html=1;" vertex="1" parent="WIyWlLk6GJQsqaUBKTNV-1">
          <mxGeometry x="827" y="460" width="183" height="60" as="geometry" />
        </mxCell>
        <mxCell id="3EijbXTQ5kL77mUoH7r4-53" value="" style="edgeStyle=orthogonalEdgeStyle;rounded=0;orthogonalLoop=1;jettySize=auto;html=1;" edge="1" parent="WIyWlLk6GJQsqaUBKTNV-1" source="3EijbXTQ5kL77mUoH7r4-50" target="3EijbXTQ5kL77mUoH7r4-52">
          <mxGeometry relative="1" as="geometry" />
        </mxCell>
        <mxCell id="3EijbXTQ5kL77mUoH7r4-50" value="editStudent(struct student students[], int count, int index)" style="rounded=0;whiteSpace=wrap;html=1;" vertex="1" parent="WIyWlLk6GJQsqaUBKTNV-1">
          <mxGeometry x="825" y="588" width="185" height="60" as="geometry" />
        </mxCell>
        <mxCell id="3EijbXTQ5kL77mUoH7r4-56" value="" style="edgeStyle=orthogonalEdgeStyle;rounded=0;orthogonalLoop=1;jettySize=auto;html=1;" edge="1" parent="WIyWlLk6GJQsqaUBKTNV-1" source="3EijbXTQ5kL77mUoH7r4-52" target="3EijbXTQ5kL77mUoH7r4-55">
          <mxGeometry relative="1" as="geometry" />
        </mxCell>
        <mxCell id="3EijbXTQ5kL77mUoH7r4-59" value="" style="edgeStyle=orthogonalEdgeStyle;rounded=0;orthogonalLoop=1;jettySize=auto;html=1;" edge="1" parent="WIyWlLk6GJQsqaUBKTNV-1" source="3EijbXTQ5kL77mUoH7r4-52" target="3EijbXTQ5kL77mUoH7r4-58">
          <mxGeometry relative="1" as="geometry" />
        </mxCell>
        <mxCell id="3EijbXTQ5kL77mUoH7r4-52" value="index &amp;lt; 0 || index &amp;gt;= count" style="rhombus;whiteSpace=wrap;html=1;" vertex="1" parent="WIyWlLk6GJQsqaUBKTNV-1">
          <mxGeometry x="811.25" y="710" width="212.5" height="80" as="geometry" />
        </mxCell>
        <mxCell id="3EijbXTQ5kL77mUoH7r4-55" value="Khong hop le!" style="shape=parallelogram;perimeter=parallelogramPerimeter;whiteSpace=wrap;html=1;fixedSize=1;" vertex="1" parent="WIyWlLk6GJQsqaUBKTNV-1">
          <mxGeometry x="1070" y="720" width="120" height="60" as="geometry" />
        </mxCell>
        <mxCell id="3EijbXTQ5kL77mUoH7r4-57" value="true" style="text;html=1;align=center;verticalAlign=middle;resizable=0;points=[];autosize=1;strokeColor=none;fillColor=none;" vertex="1" parent="WIyWlLk6GJQsqaUBKTNV-1">
          <mxGeometry x="1030" y="710" width="40" height="30" as="geometry" />
        </mxCell>
        <mxCell id="3EijbXTQ5kL77mUoH7r4-58" value="inputStudent(&amp;amp;students[index]" style="rounded=0;whiteSpace=wrap;html=1;" vertex="1" parent="WIyWlLk6GJQsqaUBKTNV-1">
          <mxGeometry x="827" y="843" width="181.5" height="60" as="geometry" />
        </mxCell>
        <mxCell id="3EijbXTQ5kL77mUoH7r4-61" value="false" style="text;html=1;align=center;verticalAlign=middle;resizable=0;points=[];autosize=1;strokeColor=none;fillColor=none;" vertex="1" parent="WIyWlLk6GJQsqaUBKTNV-1">
          <mxGeometry x="115" y="1078" width="50" height="30" as="geometry" />
        </mxCell>
      </root>
    </mxGraphModel>
  </diagram>
</mxfile>
